<?xml version="1.0" encoding="utf-8"?>
<!-- Generator: Adobe Illustrator 15.0.2, SVG Export Plug-In . SVG Version: 6.00 Build 0)  -->
<!DOCTYPE svg PUBLIC "-//W3C//DTD SVG 1.1//EN" "http://www.w3.org/Graphics/SVG/1.1/DTD/svg11.dtd">
<svg version="1.1" id="Layer_1" xmlns="http://www.w3.org/2000/svg" xmlns:xlink="http://www.w3.org/1999/xlink" x="0px" y="0px"
	 width="396px" height="90px" viewBox="0 0 396 90" enable-background="new 0 0 396 90" xml:space="preserve">
<g>
	<g>
		<g>
			
				<radialGradient id="SVGID_1_" cx="38.1619" cy="45.3135" r="40.9154" gradientTransform="matrix(0.8192 -0.5736 1.1472 1.6383 -45.08 -7.035)" gradientUnits="userSpaceOnUse">
				<stop  offset="0" style="stop-color:#000000"/>
				<stop  offset="0.1624" style="stop-color:#030303"/>
				<stop  offset="0.2928" style="stop-color:#0D0D0D"/>
				<stop  offset="0.4122" style="stop-color:#1E1E1E"/>
				<stop  offset="0.525" style="stop-color:#363636"/>
				<stop  offset="0.6332" style="stop-color:#555555"/>
				<stop  offset="0.7379" style="stop-color:#7B7B7B"/>
				<stop  offset="0.8399" style="stop-color:#A7A7A7"/>
				<stop  offset="0.9371" style="stop-color:#DADADA"/>
				<stop  offset="1" style="stop-color:#FFFFFF"/>
			</radialGradient>
			<path opacity="0.15" fill="url(#SVGID_1_)" d="M74.962,64.384c0.084-0.236,0.127-0.487,0.117-0.743l-0.061-1.498
				c0.029-0.955,0.021-2.306-0.008-4.738c0.008-3.294-0.017-8.303-0.056-15.883l-0.018-3.487l-0.079-15.812V12.58
				c0-0.261-0.051-0.521-0.146-0.764c-0.134-0.414-0.402-0.778-0.77-1.029l-6.81-4.656C61.951,2.592,60.515,1.636,60,1.336
				c-0.031-0.021-0.063-0.04-0.095-0.058l0,0c-0.002-0.001-0.005-0.002-0.008-0.003c-0.295-0.168-0.624-0.256-0.955-0.261
				c-0.056-0.004-0.111-0.006-0.167-0.006c-0.332,0-0.664,0.083-0.964,0.249c-0.208,0.115-0.378,0.273-0.528,0.447
				c-0.143-0.167-0.303-0.318-0.498-0.431c-0.31-0.18-0.656-0.271-1.002-0.271c-0.338,0-0.677,0.086-0.981,0.258l-0.07,0.04
				l0.003,0.006c-0.513,0.258-1.387,0.76-3.083,1.735c-1.873,1.077-4.448,2.562-7.272,4.193c-3.14,1.815-5.63,3.251-7.372,4.253
				l-0.006-0.628c-0.013-1.147-0.031-2.189-0.049-2.944c-0.009-0.384-0.02-0.81-0.078-1.22c-0.001-0.058-0.006-0.115-0.012-0.172
				l0.006-0.001c-0.009-0.084-0.024-0.166-0.044-0.247l0.01-0.002c-0.052-0.209-0.137-0.405-0.248-0.581
				c-0.25-0.492-0.68-0.854-1.425-0.919c-0.093-0.013-0.187-0.02-0.279-0.02c-0.071,0-0.142,0.004-0.212,0.011
				c-0.491,0.019-0.828,0.212-4.311,2.213c-2.694,1.548-7.348,4.239-15.245,8.813c-3.002,1.737-6.569,3.852-7.266,4.346
				c-1.053,0.749-2.096,1.736-3.018,2.855l-0.108,0.133l-0.04,0.049c-0.092,0.117-0.173,0.219-0.252,0.324l-0.062,0.082h0
				c-0.924,1.22-1.683,2.544-2.194,3.832l0.003,0.001c-0.007,0.016-0.015,0.032-0.022,0.048h0l-0.001,0.002
				c-0.197,0.428-0.417,0.957-0.592,1.652c-0.137,0.504-0.234,1.041-0.304,1.681c-0.008,0.055-0.016,0.11-0.024,0.168
				c-0.005,0.021-0.013,0.061-0.021,0.102c-0.082,0.221-0.125,0.455-0.125,0.693l-0.003,1.578c-0.02,0.677-0.034,1.533-0.044,2.647
				c-0.037,2.84-0.037,6.984-0.036,13.254v1.779v0.17v0.094v0.202v0.058v0.953l0.002,4.002l0,0.844
				c-0.002,0.646-0.002,1.296-0.002,1.938v1.806l-0.004,0.961L0.977,66.59l-0.024,3.431c-0.005,0.759,0.42,1.455,1.1,1.794
				c0.28,0.14,0.586,0.21,0.892,0.21c0.177,0,0.355-0.023,0.528-0.071c0.06-0.015,0.118-0.031,0.176-0.052
				c0.074-0.021,0.141-0.045,0.199-0.068c0.042-0.015,0.083-0.029,0.124-0.047c0.016-0.006,0.033-0.012,0.049-0.019
				c0.122-0.049,0.412-0.164,16.058-9.212c5.661-3.274,10.089-5.825,12.748-7.349c0.005,0.075,0.012,0.146,0.021,0.213
				c0.007,0.137,0.023,0.318,0.066,0.52c0.017,0.09,0.04,0.179,0.068,0.265l-0.005,0.001c0.058,0.177,0.141,0.342,0.242,0.491
				c0.143,0.22,0.358,0.418,0.634,0.579l-10.406,6.021L12.999,69.34c-0.615,0.356-0.993,1.012-0.993,1.723v0.12v8.134v0.096v8.224
				c0,0.7,0.367,1.348,0.966,1.707c0.314,0.189,0.669,0.283,1.023,0.283c0.088,0,0.177-0.006,0.265-0.018
				c0.297-0.023,0.53-0.108,0.699-0.188c0.192-0.078,0.576-0.291,4.726-2.68c2.864-1.645,6.581-3.793,9.679-5.591l3.405-1.969
				l0.007,0.621c0.011,1.058,0.029,2.025,0.053,2.766c0.005,0.272,0.013,0.514,0.024,0.71c0.002,0.053,0.004,0.104,0.007,0.152
				c0.009,0.264,0.02,0.445,0.035,0.592l0,0.047c0.01,0.707,0.395,1.354,1.009,1.702c0.304,0.174,0.643,0.259,0.98,0.259
				c0.345,0,0.689-0.089,0.998-0.268l10.443-6.051l10.449-6.049c0.591-0.344,0.962-0.964,0.991-1.642
				c0.005-0.06,0.008-0.118,0.008-0.178v-4.326c0.358,0.975,0.882,2.376,1.654,4.439l2.296,6.146c0.1,0.268,0.253,0.504,0.443,0.696
				c0.028,0.029,0.063,0.053,0.093,0.081c-0.001,0.025-0.009,0.05-0.009,0.075c0,0.009,0,0.018,0,0.025c0,0.01,0,0.02,0,0.029
				c0,0.06,0.006,0.128,0.017,0.207c0.009,0.074,0.022,0.148,0.038,0.216h0.002c0.226,1.058,1.064,3.093,1.324,3.602l-0.003,0.002
				c0.184,0.328,0.454,0.6,0.782,0.794c0.367,0.253,0.797,0.388,1.248,0.388c0.216,0,0.429-0.031,0.635-0.092
				c0.446-0.104,0.989-0.374,1.458-1.027c0.272-0.363,0.517-0.839,0.889-1.724c0.202-0.475,0.347-0.865,0.433-1.108
				c0.037-0.101,0.071-0.203,0.098-0.293c0.058-0.179,0.166-0.525,0.172-0.934c0.014-0.016,0.03-0.024,0.043-0.042
				c0.178-0.182,0.321-0.397,0.418-0.638c0.208-0.378,0.428-0.856,0.701-1.451c0.417-0.866,3.694-7.727,4.618-10.37
				c0.156-0.283,0.245-0.609,0.245-0.956C75.371,65.132,75.216,64.719,74.962,64.384z M66.991,18.445
				c-1.635-1.119-2.125-1.361-2.563-1.413l0.012-3.526c0.113,0.077,0.229,0.157,0.349,0.239l2.458,1.682l0.024,3.207L66.991,18.445z
				 M56.845,21.287c-0.001,1.306-0.003,2.698-0.004,4.167c-0.299-0.209-0.626-0.308-0.915-0.334c-0.1-0.017-0.201-0.027-0.301-0.029
				c-0.058-0.005-0.116-0.007-0.174-0.007c-0.719,0-1.223,0.355-1.493,0.587c-0.193,0.119-0.817,0.494-2.736,1.606
				c-1.838,1.047-4.288,2.453-6.954,3.994l-7.327,4.235c-0.015-0.191-0.036-0.384-0.068-0.573c-0.017-0.249-0.08-0.49-0.184-0.71
				l0.004-0.002c-0.019-0.041-0.039-0.08-0.061-0.119c-0.143-0.31-0.348-0.574-0.644-0.757l0.375-0.215
				c1.357-0.769,5.364-3.077,9.957-5.735l10.376-6.008c0.039-0.023,0.078-0.047,0.115-0.072
				C56.824,21.306,56.833,21.294,56.845,21.287z M33.229,32.778c0.132,0.242,0.309,0.451,0.548,0.605
				c-0.459,0.25-2.123,1.194-8.747,5.03c-2.163,1.25-4.146,2.395-5.658,3.264c-0.001-0.161-0.001-0.326-0.002-0.495
				c-0.002-0.434-0.002-0.914-0.002-1.444c0-0.62,0-1.169,0.002-1.658c0.004-0.963,0.012-2.92,0.145-3.45
				c0.007-0.007,0.015-0.014,0.023-0.021c0.655-0.428,3.727-2.269,8.141-4.826l5.09-2.944l0.008,0.729
				c0.013,1.146,0.031,2.19,0.05,2.947c0.01,0.383,0.022,0.826,0.088,1.255l-0.017,0.001C32.916,32.136,33.033,32.482,33.229,32.778
				z M55.793,53.425c-0.031-0.002-0.062-0.002-0.093-0.002c-0.02,0-0.04,0-0.06,0c-0.13,0-0.237,0.002-0.41,0.054
				c-0.162,0.037-0.319,0.094-0.463,0.165l0.004,0.009c-0.008,0.005-0.017,0.009-0.025,0.013l0.004,0.008
				c-1.012,0.478-3.418,1.873-10.455,5.95l-7.287,4.215l-0.006-0.586c-0.009-0.902-0.024-1.737-0.039-2.424
				c-0.001-1.702-0.043-1.887-0.091-2.1c-0.009-0.042-0.02-0.083-0.032-0.124c-0.103-0.538-0.429-1.007-0.898-1.304
				c0.435-0.222,2.096-1.166,10.618-6.145l7.312-4.278l2.908-1.701c0.021-0.013,0.037-0.031,0.058-0.044v8.634
				C56.531,53.557,56.168,53.437,55.793,53.425z"/>
		</g>
		<g>
			
				<radialGradient id="SVGID_2_" cx="187.3328" cy="30.0293" r="69.4733" gradientTransform="matrix(-0.1736 -0.9848 1.9696 -0.3473 160.7166 224.9451)" gradientUnits="userSpaceOnUse">
				<stop  offset="0" style="stop-color:#000000"/>
				<stop  offset="0.1702" style="stop-color:#393939"/>
				<stop  offset="0.3969" style="stop-color:#7F7F7F"/>
				<stop  offset="0.6015" style="stop-color:#B6B6B6"/>
				<stop  offset="0.7765" style="stop-color:#DEDEDE"/>
				<stop  offset="0.9151" style="stop-color:#F6F6F6"/>
				<stop  offset="1" style="stop-color:#FFFFFF"/>
			</radialGradient>
			<path opacity="0.15" fill="url(#SVGID_2_)" d="M91.797,43.413c-0.582-0.872-0.387-2.046,0.446-2.684l5.938-4.546
				c0.35-0.268,0.775-0.41,1.209-0.41c0.118,0,0.236,0.011,0.354,0.032c0.551,0.1,1.035,0.426,1.333,0.901
				c1.402,2.235,4.266,3.235,6.481,3.235c0.571,0,3.428-0.098,3.544-2.007c0.053-1.081-0.84-1.833-5.59-2.484
				c-11.428-1.75-13.745-8.596-13.676-14.031c0-0.031,0.001-0.063,0.003-0.093c0.525-8.787,8.555-12.788,15.793-12.788
				c6.076,0,11.206,2.691,14.445,7.579c0.605,0.913,0.359,2.144-0.551,2.753l-6.474,4.334c-0.33,0.221-0.716,0.336-1.107,0.336
				c-0.132,0-0.266-0.013-0.397-0.04c-0.521-0.106-0.978-0.417-1.269-0.862c-1.162-1.78-2.726-2.682-4.647-2.682
				c-0.853,0-3.623,0.132-3.79,1.819c0.04,1.04,0.829,1.425,4.286,2.133l0.619,0.128c4.413,0.825,14.747,2.758,14.25,14.614
				c-0.001,0.032-0.003,0.064-0.006,0.096c-0.758,8.388-8.812,12.777-16.376,12.777C100.721,51.521,95.182,48.49,91.797,43.413z
				 M123.355,48.999V11.117c0-1.099,0.891-1.99,1.99-1.99h14.928c0.002,0,0.004,0,0.006,0c8.059,0.023,13.061,4.761,14.806,10.43
				v-8.44c0-1.099,0.891-1.99,1.99-1.99h7.865c1.099,0,1.99,0.891,1.99,1.99v13.045h9.987V11.117c0-1.099,0.891-1.99,1.99-1.99
				h7.865c1.099,0,1.99,0.891,1.99,1.99v37.881c0,1.099-0.891,1.99-1.99,1.99h-7.865c-1.099,0-1.99-0.892-1.99-1.99v-12.99h-9.987
				v12.99c0,1.099-0.891,1.99-1.99,1.99h-7.865c-1.099,0-1.99-0.892-1.99-1.99V28.823c-1.743,5.694-6.733,10.447-14.758,10.447
				h-5.179v9.729c0,1.099-0.891,1.99-1.99,1.99h-7.813C124.246,50.989,123.355,50.098,123.355,48.999z M140.27,27.908
				c2.619,0,3.79-1.743,3.79-3.47c0-1.574-0.992-3.413-3.79-3.413h-5.125v6.882H140.27z M191.536,50.991h25.682
				c1.1,0,1.99-0.892,1.99-1.99v-7.65c0-1.099-0.891-1.99-1.99-1.99h-15.773v-3.512h14.328c1.099,0,1.989-0.891,1.989-1.99v-7.652
				c0-1.099-0.891-1.989-1.989-1.989h-14.328v-3.459h15.773c1.1,0,1.99-0.891,1.99-1.99v-7.706c0-1.099-0.891-1.99-1.99-1.99
				h-25.682c-1.099,0-1.99,0.891-1.99,1.99v37.938C189.546,50.1,190.437,50.991,191.536,50.991z M254.489,50.69
				c-0.308,0.19-0.668,0.299-1.045,0.299h-9.687c-0.615,0-1.195-0.284-1.572-0.77l-9.975-12.854v11.633
				c0,1.099-0.891,1.99-1.989,1.99h-7.92c-1.099,0-1.989-0.892-1.989-1.99V11.117c0-1.099,0.891-1.99,1.989-1.99h14.929
				c9.646,0,15.306,5.114,15.527,14.082c0,6.328-2.43,10.51-7.232,12.473l8.015,10.215V11.063c0-1.099,0.891-1.99,1.989-1.99h25.685
				c1.099,0,1.99,0.891,1.99,1.99v7.706c0,1.099-0.892,1.99-1.99,1.99h-15.775v3.459h14.33c1.099,0,1.99,0.891,1.99,1.989v7.652
				c0,1.099-0.892,1.99-1.99,1.99h-14.33v3.512h15.775c1.099,0,1.99,0.891,1.99,1.99v7.65c0,1.099-0.892,1.99-1.99,1.99h-25.685
				C255.146,50.991,254.792,50.878,254.489,50.69z M237.649,21.02c-0.116,0-0.235,0.002-0.354,0.006
				c-0.021,0-0.043,0.001-0.064,0.001h-5.02v4.957h5.02c3.681,0,3.681-1.702,3.681-2.719C240.91,22.425,240.91,21.02,237.649,21.02z
				"/>
			
				<radialGradient id="SVGID_3_" cx="170.3542" cy="71.9795" r="55.8719" gradientTransform="matrix(-0.1736 -0.9848 1.9696 -0.3473 58.164 264.7439)" gradientUnits="userSpaceOnUse">
				<stop  offset="0" style="stop-color:#000000"/>
				<stop  offset="0.1702" style="stop-color:#393939"/>
				<stop  offset="0.3969" style="stop-color:#7F7F7F"/>
				<stop  offset="0.6015" style="stop-color:#B6B6B6"/>
				<stop  offset="0.7765" style="stop-color:#DEDEDE"/>
				<stop  offset="0.9151" style="stop-color:#F6F6F6"/>
				<stop  offset="1" style="stop-color:#FFFFFF"/>
			</radialGradient>
			<path opacity="0.15" fill="url(#SVGID_3_)" d="M248.28,61.489v21.132c0,1.1-0.892,1.99-1.989,1.99h-4.689
				c-0.709,0-1.365-0.378-1.721-0.99l-3.751-6.461v5.462c0,1.1-0.892,1.99-1.99,1.99h-4.416c-1.099,0-1.99-0.891-1.99-1.99v-3.796
				c-1.396,4.098-5.813,6.229-10.197,6.229c-4.616,0-9.281-2.367-10.389-6.916v4.48c0,1.1-0.892,1.99-1.99,1.99h-4.148
				c-1.1,0-1.99-0.891-1.99-1.99V67.867h-3.72V82.62c0,1.1-0.891,1.99-1.99,1.99h-4.418c-0.983,0-1.795-0.715-1.956-1.653
				c-0.05,0.286-0.155,0.564-0.327,0.809c-0.373,0.53-0.98,0.845-1.628,0.845h-4.596c-0.825,0-1.564-0.509-1.859-1.278l-1.361-3.557
				h-3.538c-0.171,0.47-0.333,0.915-0.499,1.372l-0.784,2.155c-0.287,0.785-1.034,1.308-1.87,1.308h-4.686
				c-0.646,0-1.25-0.313-1.624-0.838c-0.158-0.223-0.254-0.475-0.311-0.734c-1.727,1.138-3.729,1.782-5.827,1.782
				c-4.05,0-8.131-1.98-9.611-5.792c-1.515,3.882-5.622,5.9-9.692,5.9c-4.187,0-8.411-2.139-9.793-6.255
				c-1.188,3.642-4.756,5.938-9.617,5.938l-7.761-0.001c-0.547,0-1.042-0.222-1.402-0.579c-0.36,0.358-0.855,0.58-1.403,0.58H94.419
				c-1.099,0-1.99-0.891-1.99-1.99V61.46c0-1.099,0.891-1.99,1.99-1.99h14.327c0.556,0,1.057,0.229,1.418,0.597
				c0.358-0.35,0.847-0.567,1.388-0.567h7.76c4.336,0,7.636,1.859,9.144,4.879v-2.889c0-1.1,0.891-1.99,1.99-1.99h4.418
				c1.099,0,1.989,0.891,1.989,1.99v14.207c0,0.797,1.392,0.976,1.879,0.976c0.621,0,1.901-0.237,1.901-0.976V61.489
				c0-1.1,0.891-1.99,1.99-1.99h4.417c1.099,0,1.99,0.891,1.99,1.99v2.358c1.824-3.002,5.465-4.56,9.084-4.56
				c3.961,0,7.553,2.236,9.148,5.694c0.439,0.952,0.064,2.084-0.858,2.583l-3.522,1.911c-0.294,0.159-0.62,0.24-0.948,0.24
				c-0.194,0-0.389-0.027-0.579-0.085c-0.509-0.155-0.936-0.508-1.183-0.979c-0.589-1.12-1.911-1.206-2.303-1.206
				c-0.552,0-1.082,0.141-1.417,0.378c-0.29,0.205-0.29,0.369-0.29,0.468v7.522c0,0.47,0.834,0.787,1.614,0.787
				c0.806,0,1.833-0.321,2.299-1.223c0.248-0.48,0.679-0.838,1.195-0.993c0.188-0.057,0.38-0.084,0.573-0.084
				c0.336,0,0.671,0.086,0.971,0.253l3.083,1.724l5.411-15.448c0.28-0.798,1.033-1.332,1.878-1.332h4.209
				c0.839,0,1.589,0.526,1.873,1.317l1.57,4.375V61.46c0-1.099,0.891-1.99,1.99-1.99h16.536c0.375,0,0.721,0.11,1.021,0.29
				c0.731-0.535,1.63-0.856,2.623-0.856c2.563,0,4.497,1.921,4.497,4.467c0,0.97-0.276,1.848-0.758,2.566
				c0.132,0.177,0.23,0.378,0.298,0.591c0.379-2.147,1.534-4.01,3.369-5.344c1.902-1.38,4.427-2.14,7.108-2.14
				c4.388,0,8.813,2.136,10.208,6.238v-3.793c0-1.1,0.892-1.99,1.99-1.99h4.327c0.71,0,1.365,0.377,1.722,0.991l4.14,7.132v-6.133
				c0-1.1,0.891-1.99,1.99-1.99h4.389C247.388,59.499,248.28,60.39,248.28,61.489z M120.965,75.875v-7.522
				c0-0.043-0.004-0.064-0.003-0.065c-0.08-0.107-0.607-0.391-1.649-0.391h-1.384v8.316l1.385,0.001
				c1.035,0,1.527-0.231,1.653-0.327C120.966,75.885,120.965,75.881,120.965,75.875z M109.563,67.568
				c-0.25,0.113-0.525,0.179-0.816,0.179h-7.92v0.17h7.113c0.671,0,1.262,0.335,1.623,0.845V67.568z M109.563,76.543V75.32
				c-0.361,0.511-0.952,0.845-1.623,0.845h-7.113v0.199h7.92C109.038,76.364,109.313,76.431,109.563,76.543z M186.853,81.948
				c0.023,0.067,0.03,0.138,0.047,0.207V67.867h-4.069c-0.438,0-0.84-0.146-1.169-0.387L186.853,81.948z M219.767,67.97
				c-0.281-0.283-1.086-0.59-2.187-0.59c-1.41,0-2.259,0.505-2.343,0.707l-0.004,7.956c0.1,0.19,0.894,0.645,2.27,0.645
				c1.391,0,2.224-0.476,2.317-0.661v-7.957C219.821,68.034,219.821,68.024,219.767,67.97z"/>
			
				<radialGradient id="SVGID_4_" cx="325.3879" cy="71.916" r="50.7712" gradientTransform="matrix(-0.1736 -0.9848 1.9696 -0.3473 240.244 417.3368)" gradientUnits="userSpaceOnUse">
				<stop  offset="0" style="stop-color:#000000"/>
				<stop  offset="0.1702" style="stop-color:#393939"/>
				<stop  offset="0.3969" style="stop-color:#7F7F7F"/>
				<stop  offset="0.6015" style="stop-color:#B6B6B6"/>
				<stop  offset="0.7765" style="stop-color:#DEDEDE"/>
				<stop  offset="0.9151" style="stop-color:#F6F6F6"/>
				<stop  offset="1" style="stop-color:#FFFFFF"/>
			</radialGradient>
			<path opacity="0.15" fill="url(#SVGID_4_)" d="M386.091,67.747v0.17h7.111c1.099,0,1.99,0.892,1.99,1.99v4.268
				c0,1.099-0.892,1.99-1.99,1.99h-7.111v0.199h7.919c1.099,0,1.99,0.891,1.99,1.99v4.268c0,1.1-0.892,1.99-1.99,1.99h-14.326
				c-1.099,0-1.99-0.891-1.99-1.99V67.867h-3.813V82.62c0,1.1-0.891,1.99-1.99,1.99h-4.417c-1.099,0-1.989-0.891-1.989-1.99V67.867
				h-4.07c-0.044,0-0.084-0.01-0.128-0.014v7.849c-0.019,6.058-5.199,9.227-10.308,9.227c-5.103,0-10.268-3.171-10.268-9.232v-7.829
				h-3.931V82.62c0,1.1-0.89,1.99-1.989,1.99h-4.419c-1.1,0-1.989-0.891-1.989-1.99V67.867h-4.07c-0.023,0-0.044-0.006-0.066-0.007
				v14.76c0,1.1-0.892,1.99-1.99,1.99h-4.148c-1.1,0-1.99-0.891-1.99-1.99V67.867h-3.722V82.62c0,1.1-0.891,1.99-1.99,1.99h-4.416
				c-1.1,0-1.99-0.891-1.99-1.99V67.867h-4.072c-0.577,0-1.092-0.251-1.456-0.644l-2.567,1.718c2.491,1.114,4.982,3.317,4.789,7.942
				c-0.001,0.031-0.003,0.064-0.006,0.096c-0.471,5.206-5.394,7.93-10.013,7.93c-2.802,0-5.46-1.136-7.47-3.099v0.811
				c0,1.1-0.892,1.99-1.99,1.99h-4.688c-0.709,0-1.365-0.378-1.721-0.99l-3.752-6.461v5.462c0,1.1-0.892,1.99-1.989,1.99h-4.418
				c-0.759,0-1.411-0.43-1.747-1.055c-0.335,0.623-0.986,1.053-1.744,1.053h-4.389c-1.1,0-1.99-0.891-1.99-1.99V61.489
				c0-1.1,0.891-1.99,1.99-1.99h4.389c0.758,0,1.41,0.43,1.745,1.055c0.335-0.625,0.987-1.055,1.746-1.055h4.329
				c0.709,0,1.364,0.377,1.721,0.991l4.14,7.132v-6.133c0-1.1,0.891-1.99,1.99-1.99h4.388c1.099,0,1.99,0.891,1.99,1.99v1.214
				c1.697-2.189,4.57-3.532,8.039-3.532c2.578,0,4.867,0.815,6.694,2.314V61.46c0-1.099,0.892-1.99,1.989-1.99h16.536
				c0.375,0,0.721,0.11,1.021,0.29c0.731-0.535,1.63-0.856,2.623-0.856c1.144,0,2.147,0.397,2.924,1.047
				c0.348-0.296,0.791-0.48,1.282-0.48h16.536c0.347,0,0.669,0.098,0.953,0.253c0.271-0.139,0.573-0.224,0.899-0.224h4.416
				c1.1,0,1.99,0.891,1.99,1.99v14.207c0,0.797,1.393,0.976,1.881,0.976c0.621,0,1.901-0.237,1.901-0.976V61.489
				c0-1.1,0.892-1.99,1.99-1.99h4.417c0.379,0,0.729,0.111,1.031,0.296c0.313-0.205,0.685-0.325,1.086-0.325h16.536
				c0.312,0,0.604,0.078,0.868,0.207c0.262-0.129,0.554-0.207,0.866-0.207h14.326c1.099,0,1.99,0.892,1.99,1.99v4.297
				c0,1.1-0.892,1.99-1.99,1.99H386.091z M292.254,76.455c-0.267-0.141-0.895-0.325-2.329-0.523
				c-0.453-0.069-0.883-0.151-1.29-0.249c0.671,0.688,1.743,1.006,2.564,1.006C291.786,76.688,292.136,76.538,292.254,76.455z
				 M291.693,67.762l0.33,0.069c0.221,0.041,0.474,0.088,0.751,0.146c-0.423-0.46-0.919-0.677-1.533-0.677
				c-0.44,0-0.753,0.06-0.96,0.124C290.674,67.552,291.26,67.673,291.693,67.762z M283.203,76.481l2.231-1.708
				c0.086-0.066,0.177-0.124,0.271-0.175c-1.09-0.591-1.899-1.312-2.503-2.084V76.481z"/>
		</g>
	</g>
	<g>
		
			<image overflow="visible" enable-background="new    " width="442" height="527" xlink:href="New Project 2.png"  transform="matrix(0.1699 0 0 0.1699 2.441406e-004 0.2207)">
		</image>
		<g>
			<g>
				<path fill="#FFFFFF" d="M99.39,37.763c3.424,5.458,13.378,5.564,13.7,0.268c0.159-3.264-3.372-4.013-7.277-4.548
					c-5.939-0.909-12.093-3.691-11.987-12.039c0.429-7.17,7.011-10.917,13.806-10.917c4.922,0,9.631,1.927,12.787,6.688
					l-6.475,4.334c-1.605-2.459-3.853-3.584-6.313-3.584c-2.998,0-5.619,1.124-5.78,3.746v0.053c0.056,3.104,3.212,3.532,6.53,4.227
					c6.581,1.23,13.002,3.639,12.628,12.575c-0.643,7.117-7.491,10.966-14.395,10.966c-4.921,0-9.951-2.407-13.162-7.222
					L99.39,37.763z"/>
				<path fill="#FFFFFF" d="M133.158,48.999h-7.813V11.117h14.928c18.138,0.053,17.925,26.163,0.054,26.163h-7.169V48.999z
					 M140.27,19.036h-7.115v10.862h7.115C147.923,29.898,148.03,19.036,140.27,19.036z"/>
				<path fill="#FFFFFF" d="M178.907,34.019h-13.967v14.979h-7.865V11.117h7.865v15.035h13.967V11.117h7.865v37.881h-7.865V34.019z"
					/>
				<path fill="#FFFFFF" d="M217.218,18.77h-17.764v7.438h16.318v7.652h-16.318v7.491h17.764v7.65h-25.682V11.063h25.682V18.77z"/>
				<path fill="#FFFFFF" d="M253.444,48.999h-9.687l-10.754-13.857h-2.782v13.857h-7.92V11.117h14.929
					c7.599,0,13.323,3.479,13.537,12.092c0,6.957-3.157,10.328-8.615,11.397L253.444,48.999z M237.23,27.974
					c3.479,0,5.671-1.393,5.671-4.709c0-3.21-2.354-4.334-5.671-4.228h-7.009v8.937H237.23z"/>
				<path fill="#FFFFFF" d="M281.213,18.77h-17.766v7.438h16.32v7.652h-16.32v7.491h17.766v7.65h-25.685V11.063h25.685V18.77z"/>
			</g>
			<g>
				<path fill="#FFFFFF" d="M108.746,65.757h-9.91v4.15h9.104v4.268h-9.104v4.18h9.91v4.268H94.419V61.46h14.327V65.757z"/>
				<path fill="#FFFFFF" d="M111.552,82.621V61.489h7.76c4.179,0,8.059,2.089,8.059,6.865v7.522c0,4.746-3.88,6.745-8.059,6.745
					L111.552,82.621L111.552,82.621z M119.313,78.204c1.91,0,3.642-0.626,3.642-2.329v-7.522c0-1.73-1.732-2.446-3.642-2.446h-3.374
					v12.296L119.313,78.204L119.313,78.204z"/>
				<path fill="#FFFFFF" d="M134.865,61.489v14.207c0,3.97,7.76,3.938,7.76,0V61.489h4.417v14.207
					c-0.03,9.642-16.596,9.672-16.596,0V61.489H134.865z"/>
				<path fill="#FFFFFF" d="M165.637,78.414c-1.821,2.954-4.806,4.416-7.611,4.416c-4.09,0-8.208-2.358-8.208-7.015v-7.522
					c0-4.625,4.119-7.015,8.298-7.015c2.805,0,5.909,1.433,7.342,4.538l-3.522,1.91c-1.821-3.463-7.761-2.717-7.761,0.566v7.522
					c0,3.254,5.879,3.94,7.67,0.478L165.637,78.414z"/>
				<path fill="#FFFFFF" d="M173.189,61.489h4.209l7.581,21.131h-4.596l-1.852-4.834h-6.298c-0.657,1.791-1.075,2.955-1.761,4.834
					h-4.686L173.189,61.489z M175.131,66.145l-0.597,3.047l-1.194,4.566h4.06l-1.344-4.597l-0.597-3.015h-0.328V66.145z"/>
				<path fill="#FFFFFF" d="M199.366,61.46v4.417h-6.059V82.62h-4.418V65.877h-6.059V61.46H199.366z"/>
				<path fill="#FFFFFF" d="M203.01,60.894c1.492,0,2.507,1.074,2.507,2.477s-1.015,2.508-2.507,2.508
					c-1.374,0-2.448-1.104-2.448-2.508C200.562,61.967,201.636,60.894,203.01,60.894z M201.008,67.13v15.49h4.148V67.13H201.008z"/>
				<path fill="#FFFFFF" d="M226.201,68.087v7.938c0,9.372-17.313,9.401-17.313,0v-7.938
					C208.888,58.654,226.201,58.714,226.201,68.087z M213.247,76.026c-0.031,3.551,8.563,3.521,8.563,0v-7.939
					c0.031-3.641-8.563-3.551-8.563,0V76.026z"/>
				<path fill="#FFFFFF" d="M242.528,76.772c-0.239-1.374-0.598-4.032-0.626-4.479V61.489h4.389v21.132h-4.689l-6.446-11.104
					l-1.283-2.864l-0.299,0.06l0.566,3.612v10.298h-4.416V61.489h4.327l6.688,11.521l1.492,3.821L242.528,76.772z"/>
				<path fill="#FFFFFF" d="M256.766,61.489h4.389V82.62h-4.389V61.489z"/>
				<path fill="#FFFFFF" d="M277.449,76.772c-0.238-1.374-0.596-4.032-0.624-4.479V61.489h4.388v21.132h-4.688l-6.448-11.104
					l-1.282-2.864l-0.299,0.06l0.567,3.612v10.298h-4.418V61.489h4.329l6.688,11.521l1.491,3.821L277.449,76.772z"/>
				<path fill="#FFFFFF" d="M286.644,76.354c1.911,3.044,7.463,3.102,7.642,0.148c0.089-1.821-1.88-2.239-4.06-2.538
					c-3.313-0.507-6.744-2.061-6.685-6.716c0.239-3.999,3.909-6.088,7.701-6.088c2.745,0,5.37,1.073,7.134,3.73l-3.613,2.418
					c-0.896-1.375-2.149-2-3.522-2c-1.672,0-3.135,0.625-3.225,2.09v0.028c0.031,1.731,1.792,1.971,3.643,2.359
					c3.669,0.687,7.254,2.028,7.046,7.014c-0.359,3.97-4.181,6.118-8.031,6.118c-2.746,0-5.553-1.344-7.342-4.03L286.644,76.354z"/>
				<path fill="#FFFFFF" d="M316.462,61.46v4.417h-6.058V82.62h-4.416V65.877h-6.063V61.46H316.462z"/>
				<path fill="#FFFFFF" d="M320.106,60.894c1.493,0,2.507,1.074,2.507,2.477s-1.014,2.508-2.507,2.508
					c-1.374,0-2.448-1.104-2.448-2.508C317.657,61.967,318.732,60.894,320.106,60.894z M318.107,67.13v15.49h4.148V67.13H318.107z"
					/>
				<path fill="#FFFFFF" d="M340.848,61.46v4.417h-6.058V82.62h-4.419V65.877h-6.06V61.46H340.848z"/>
				<path fill="#FFFFFF" d="M347.116,61.489v14.207c0,3.97,7.763,3.938,7.763,0V61.489h4.417v14.207
					c-0.029,9.642-16.596,9.672-16.596,0V61.489H347.116z"/>
				<path fill="#FFFFFF" d="M377.949,61.46v4.417h-6.06V82.62h-4.417V65.877h-6.06V61.46H377.949z"/>
				<path fill="#FFFFFF" d="M394.01,65.757h-9.909v4.15h9.102v4.268h-9.102v4.18h9.909v4.268h-14.326V61.46h14.326V65.757z"/>
			</g>
		</g>
	</g>
</g>
</svg>
