<?xml version="1.0" encoding="utf-8"?>
<!-- Generator: Adobe Illustrator 15.0.2, SVG Export Plug-In . SVG Version: 6.00 Build 0)  -->
<!DOCTYPE svg PUBLIC "-//W3C//DTD SVG 1.1//EN" "http://www.w3.org/Graphics/SVG/1.1/DTD/svg11.dtd">
<svg version="1.1" id="Layer_1" xmlns="http://www.w3.org/2000/svg" xmlns:xlink="http://www.w3.org/1999/xlink" x="0px" y="0px"
	 width="396px" height="90px" viewBox="0 0 396 90" enable-background="new 0 0 396 90" xml:space="preserve">
<g>
	
		<image overflow="visible" width="442" height="527" xlink:href="New Project 2.png"  transform="matrix(0.1708 0 0 0.1708 -1.9995 -1)">
	</image>
	<g>
		<path fill="#FFFFFF" d="M95.565,26.628c1.92,3.06,7.5,3.12,7.68,0.15c0.09-1.83-1.89-2.25-4.08-2.55
			c-3.33-0.51-6.779-2.07-6.72-6.75c0.24-4.02,3.93-6.12,7.74-6.12c2.76,0,5.399,1.08,7.169,3.75l-3.63,2.43
			c-0.899-1.38-2.159-2.01-3.539-2.01c-1.681,0-3.15,0.63-3.24,2.1v0.03c0.03,1.74,1.8,1.98,3.66,2.37
			c3.689,0.69,7.289,2.04,7.079,7.05c-0.359,3.99-4.199,6.149-8.069,6.149c-2.76,0-5.58-1.35-7.38-4.05L95.565,26.628z"/>
		<path fill="#FFFFFF" d="M114.495,32.928h-4.38V11.689h8.37c10.169,0.03,10.049,14.669,0.029,14.669h-4.02V32.928z M118.485,16.129
			h-3.99v6.09h3.99C122.774,22.219,122.834,16.129,118.485,16.129z"/>
		<path fill="#FFFFFF" d="M140.145,24.529h-7.83v8.399h-4.41V11.689h4.41v8.43h7.83v-8.43h4.409v21.239h-4.409V24.529z"/>
		<path fill="#FFFFFF" d="M161.625,15.979h-9.96v4.17h9.15v4.29h-9.15v4.2h9.96v4.29h-14.399V11.659h14.399V15.979z"/>
		<path fill="#FFFFFF" d="M181.934,32.928h-5.43l-6.03-7.77h-1.56v7.77h-4.439V11.689h8.369c4.26,0,7.47,1.95,7.59,6.78
			c0,3.9-1.77,5.79-4.83,6.39L181.934,32.928z M172.844,21.139c1.95,0,3.18-0.78,3.18-2.64c0-1.8-1.319-2.43-3.18-2.37h-3.93v5.01
			H172.844z"/>
		<path fill="#FFFFFF" d="M197.503,15.979h-9.959v4.17h9.149v4.29h-9.149v4.2h9.959v4.29h-14.399V11.659h14.399V15.979z"/>
		<path fill="#FFFFFF" d="M107.294,45.979h-9.96v4.17h9.15v4.29h-9.15v4.2h9.96v4.289H92.895V41.659h14.399V45.979z"/>
		<path fill="#FFFFFF" d="M110.115,62.928V41.689h7.8c4.199,0,8.1,2.1,8.1,6.9v7.56c0,4.77-3.9,6.779-8.1,6.779H110.115z
			 M117.915,58.488c1.92,0,3.659-0.63,3.659-2.34v-7.56c0-1.739-1.739-2.46-3.659-2.46h-3.39v12.359H117.915z"/>
		<path fill="#FFFFFF" d="M133.544,41.689v14.28c0,3.99,7.8,3.959,7.8,0v-14.28h4.439v14.28c-0.029,9.689-16.679,9.719-16.679,0
			v-14.28H133.544z"/>
		<path fill="#FFFFFF" d="M164.473,58.698c-1.83,2.97-4.829,4.44-7.649,4.44c-4.11,0-8.25-2.371-8.25-7.051v-7.559
			c0-4.65,4.14-7.05,8.34-7.05c2.82,0,5.939,1.44,7.38,4.56l-3.54,1.92c-1.83-3.48-7.8-2.73-7.8,0.57v7.559
			c0,3.271,5.91,3.961,7.71,0.48L164.473,58.698z"/>
		<path fill="#FFFFFF" d="M172.064,41.689h4.229l7.62,21.239h-4.62l-1.859-4.859h-6.33c-0.66,1.8-1.08,2.97-1.77,4.859h-4.71
			L172.064,41.689z M174.014,46.369l-0.601,3.06l-1.199,4.59h4.079l-1.35-4.62l-0.6-3.029H174.014z"/>
		<path fill="#FFFFFF" d="M198.374,41.659v4.44h-6.09v16.828h-4.44V46.1h-6.09v-4.44H198.374z"/>
		<path fill="#FFFFFF" d="M202.034,41.089c1.5,0,2.52,1.08,2.52,2.49c0,1.409-1.02,2.521-2.52,2.521c-1.38,0-2.46-1.111-2.46-2.521
			C199.574,42.169,200.654,41.089,202.034,41.089z M200.024,47.359v15.568h4.17V47.359H200.024z"/>
		<path fill="#FFFFFF" d="M225.343,48.318v7.98c0,9.42-17.399,9.449-17.399,0v-7.98C207.944,38.839,225.343,38.899,225.343,48.318z
			 M212.324,56.299c-0.03,3.569,8.609,3.539,8.609,0v-7.98c0.03-3.659-8.609-3.569-8.609,0V56.299z"/>
		<path fill="#FFFFFF" d="M241.752,57.049c-0.24-1.381-0.6-4.051-0.63-4.5v-10.86h4.41v21.239h-4.71l-6.48-11.159l-1.289-2.88
			l-0.301,0.061l0.57,3.629v10.35h-4.439V41.689h4.35l6.72,11.58l1.5,3.84L241.752,57.049z"/>
		<path fill="#FFFFFF" d="M256.063,41.689h4.409v21.239h-4.409V41.689z"/>
		<path fill="#FFFFFF" d="M276.852,57.049c-0.24-1.381-0.6-4.051-0.63-4.5v-10.86h4.41v21.239h-4.71l-6.48-11.159l-1.289-2.88
			l-0.301,0.061l0.57,3.629v10.35h-4.439V41.689h4.35l6.72,11.58l1.5,3.84L276.852,57.049z"/>
		<path fill="#FFFFFF" d="M286.092,56.629c1.92,3.06,7.5,3.119,7.68,0.149c0.091-1.829-1.89-2.249-4.079-2.55
			c-3.33-0.51-6.78-2.07-6.72-6.75c0.239-4.02,3.93-6.12,7.739-6.12c2.76,0,5.399,1.08,7.171,3.75l-3.631,2.43
			c-0.9-1.381-2.16-2.01-3.54-2.01c-1.68,0-3.149,0.629-3.239,2.1v0.029c0.029,1.74,1.8,1.98,3.659,2.371
			c3.69,0.689,7.29,2.039,7.081,7.049c-0.361,3.99-4.201,6.15-8.071,6.15c-2.76,0-5.579-1.35-7.379-4.051L286.092,56.629z"/>
		<path fill="#FFFFFF" d="M316.061,41.659v4.44h-6.089v16.828h-4.44V46.1h-6.09v-4.44H316.061z"/>
		<path fill="#FFFFFF" d="M319.722,41.089c1.5,0,2.52,1.08,2.52,2.49c0,1.409-1.02,2.521-2.52,2.521c-1.38,0-2.46-1.111-2.46-2.521
			C317.262,42.169,318.342,41.089,319.722,41.089z M317.712,47.359v15.568h4.17V47.359H317.712z"/>
		<path fill="#FFFFFF" d="M340.571,41.659v4.44h-6.089v16.828h-4.44V46.1h-6.09v-4.44H340.571z"/>
		<path fill="#FFFFFF" d="M346.872,41.689v14.28c0,3.99,7.8,3.959,7.8,0v-14.28h4.439v14.28c-0.029,9.689-16.679,9.719-16.679,0
			v-14.28H346.872z"/>
		<path fill="#FFFFFF" d="M377.86,41.659v4.44h-6.089v16.828h-4.44V46.1h-6.09v-4.44H377.86z"/>
		<path fill="#FFFFFF" d="M394,45.979h-9.96v4.17h9.149v4.29h-9.149v4.2H394v4.289h-14.399V41.659H394V45.979z"/>
	</g>
</g>
</svg>
